<svg xmlns="http://www.w3.org/2000/svg" viewBox="0 0 480 360" width="480" height="360" fill="none">
  <rect width="480" height="360" fill="#FBF4E6"/>
  <!-- fanned stack of blank slide frames -->
  <g stroke="#2E2820" stroke-width="5">
    <g transform="rotate(-9 200 250)">
      <rect x="110" y="170" width="180" height="120" rx="10" fill="#F4EBD6"/>
    </g>
    <g transform="rotate(5 230 240)">
      <rect x="140" y="160" width="180" height="120" rx="10" fill="#FFFDF6"/>
    </g>
    <g transform="rotate(-2 250 220)">
      <rect x="160" y="140" width="180" height="120" rx="10" fill="#FFFDF6"/>
      <rect x="160" y="140" width="180" height="26" rx="10" fill="#FFE9AE" stroke="none"/>
    </g>
  </g>
  <!-- doodle lightbulb on top frame -->
  <g transform="translate(250 210)" stroke="#2E2820" stroke-width="4" stroke-linecap="round">
    <path d="M0-26a20 20 0 1 1 12 36l-2.5 9h-19L-12 10A20 20 0 0 1 0-26z" fill="#FFC53D"/>
    <path d="M-8 27h16M-6 33h12" stroke-width="3"/>
    <path d="M-24-14l-9-5M24-14l9-5M0-52v-10" stroke-width="3"/>
  </g>
  <!-- sparkles -->
  <path d="M110 90l4 10 10 4-10 4-4 10-4-10-10-4 10-4z" fill="#8566D4"/>
  <path d="M390 110l3 8 8 3-8 3-3 8-3-8-8-3 8-3z" fill="#FFC53D"/>
  <path d="M400 250c14-10 30-10 42 0" stroke="#2E2820" stroke-width="3" fill="none" stroke-linecap="round"/>
</svg>
